<?xml version="1.0" encoding="utf-8" standalone="no"?>
<!DOCTYPE svg PUBLIC "-//W3C//DTD SVG 1.1//EN"
  "http://www.w3.org/Graphics/SVG/1.1/DTD/svg11.dtd">
<svg xmlns:xlink="http://www.w3.org/1999/xlink" width="460.8pt" height="345.6pt" viewBox="0 0 460.8 345.6" xmlns="http://www.w3.org/2000/svg" version="1.1">
 <metadata>
  <rdf:RDF xmlns:dc="http://purl.org/dc/elements/1.1/" xmlns:cc="http://creativecommons.org/ns#" xmlns:rdf="http://www.w3.org/1999/02/22-rdf-syntax-ns#">
   <cc:Work>
    <dc:type rdf:resource="http://purl.org/dc/dcmitype/StillImage"/>
    <dc:date>2024-12-05T15:54:26.120332</dc:date>
    <dc:format>image/svg+xml</dc:format>
    <dc:creator>
     <cc:Agent>
      <dc:title>Matplotlib v3.9.2, https://matplotlib.org/</dc:title>
     </cc:Agent>
    </dc:creator>
   </cc:Work>
  </rdf:RDF>
 </metadata>
 <defs>
  <style type="text/css">*{stroke-linejoin: round; stroke-linecap: butt}</style>
 </defs>
 <g id="figure_1">
  <g id="patch_1">
   <path d="M 0 345.6 
L 460.8 345.6 
L 460.8 0 
L 0 0 
z
" style="fill: #ffffff"/>
  </g>
  <g id="axes_1">
   <g id="patch_2">
    <path d="M 57.6 307.584 
L 414.72 307.584 
L 414.72 41.472 
L 57.6 41.472 
z
" style="fill: #ffffff"/>
   </g>
   <g id="matplotlib.axis_1">
    <g id="xtick_1">
     <g id="line2d_1">
      <defs>
       <path id="me631feaa31" d="M 0 0 
L 0 3.5 
" style="stroke: #000000; stroke-width: 0.8"/>
      </defs>
      <g>
       <use xlink:href="#me631feaa31" x="57.6" y="307.584" style="stroke: #000000; stroke-width: 0.8"/>
      </g>
     </g>
     <g id="text_1">
      <!-- 0.0 -->
      <g transform="translate(49.648438 322.182437) scale(0.1 -0.1)">
       <defs>
        <path id="DejaVuSans-30" d="M 2034 4250 
Q 1547 4250 1301 3770 
Q 1056 3291 1056 2328 
Q 1056 1369 1301 889 
Q 1547 409 2034 409 
Q 2525 409 2770 889 
Q 3016 1369 3016 2328 
Q 3016 3291 2770 3770 
Q 2525 4250 2034 4250 
z
M 2034 4750 
Q 2819 4750 3233 4129 
Q 3647 3509 3647 2328 
Q 3647 1150 3233 529 
Q 2819 -91 2034 -91 
Q 1250 -91 836 529 
Q 422 1150 422 2328 
Q 422 3509 836 4129 
Q 1250 4750 2034 4750 
z
" transform="scale(0.015625)"/>
        <path id="DejaVuSans-2e" d="M 684 794 
L 1344 794 
L 1344 0 
L 684 0 
L 684 794 
z
" transform="scale(0.015625)"/>
       </defs>
       <use xlink:href="#DejaVuSans-30"/>
       <use xlink:href="#DejaVuSans-2e" x="63.623047"/>
       <use xlink:href="#DejaVuSans-30" x="95.410156"/>
      </g>
     </g>
    </g>
    <g id="xtick_2">
     <g id="line2d_2">
      <g>
       <use xlink:href="#me631feaa31" x="136.341041" y="307.584" style="stroke: #000000; stroke-width: 0.8"/>
      </g>
     </g>
     <g id="text_2">
      <!-- 0.5 -->
      <g transform="translate(128.389478 322.182437) scale(0.1 -0.1)">
       <defs>
        <path id="DejaVuSans-35" d="M 691 4666 
L 3169 4666 
L 3169 4134 
L 1269 4134 
L 1269 2991 
Q 1406 3038 1543 3061 
Q 1681 3084 1819 3084 
Q 2600 3084 3056 2656 
Q 3513 2228 3513 1497 
Q 3513 744 3044 326 
Q 2575 -91 1722 -91 
Q 1428 -91 1123 -41 
Q 819 9 494 109 
L 494 744 
Q 775 591 1075 516 
Q 1375 441 1709 441 
Q 2250 441 2565 725 
Q 2881 1009 2881 1497 
Q 2881 1984 2565 2268 
Q 2250 2553 1709 2553 
Q 1456 2553 1204 2497 
Q 953 2441 691 2322 
L 691 4666 
z
" transform="scale(0.015625)"/>
       </defs>
       <use xlink:href="#DejaVuSans-30"/>
       <use xlink:href="#DejaVuSans-2e" x="63.623047"/>
       <use xlink:href="#DejaVuSans-35" x="95.410156"/>
      </g>
     </g>
    </g>
    <g id="xtick_3">
     <g id="line2d_3">
      <g>
       <use xlink:href="#me631feaa31" x="215.082081" y="307.584" style="stroke: #000000; stroke-width: 0.8"/>
      </g>
     </g>
     <g id="text_3">
      <!-- 1.0 -->
      <g transform="translate(207.130519 322.182437) scale(0.1 -0.1)">
       <defs>
        <path id="DejaVuSans-31" d="M 794 531 
L 1825 531 
L 1825 4091 
L 703 3866 
L 703 4441 
L 1819 4666 
L 2450 4666 
L 2450 531 
L 3481 531 
L 3481 0 
L 794 0 
L 794 531 
z
" transform="scale(0.015625)"/>
       </defs>
       <use xlink:href="#DejaVuSans-31"/>
       <use xlink:href="#DejaVuSans-2e" x="63.623047"/>
       <use xlink:href="#DejaVuSans-30" x="95.410156"/>
      </g>
     </g>
    </g>
    <g id="xtick_4">
     <g id="line2d_4">
      <g>
       <use xlink:href="#me631feaa31" x="293.823122" y="307.584" style="stroke: #000000; stroke-width: 0.8"/>
      </g>
     </g>
     <g id="text_4">
      <!-- 1.5 -->
      <g transform="translate(285.87156 322.182437) scale(0.1 -0.1)">
       <use xlink:href="#DejaVuSans-31"/>
       <use xlink:href="#DejaVuSans-2e" x="63.623047"/>
       <use xlink:href="#DejaVuSans-35" x="95.410156"/>
      </g>
     </g>
    </g>
    <g id="xtick_5">
     <g id="line2d_5">
      <g>
       <use xlink:href="#me631feaa31" x="372.564163" y="307.584" style="stroke: #000000; stroke-width: 0.8"/>
      </g>
     </g>
     <g id="text_5">
      <!-- 2.0 -->
      <g transform="translate(364.6126 322.182437) scale(0.1 -0.1)">
       <defs>
        <path id="DejaVuSans-32" d="M 1228 531 
L 3431 531 
L 3431 0 
L 469 0 
L 469 531 
Q 828 903 1448 1529 
Q 2069 2156 2228 2338 
Q 2531 2678 2651 2914 
Q 2772 3150 2772 3378 
Q 2772 3750 2511 3984 
Q 2250 4219 1831 4219 
Q 1534 4219 1204 4116 
Q 875 4013 500 3803 
L 500 4441 
Q 881 4594 1212 4672 
Q 1544 4750 1819 4750 
Q 2544 4750 2975 4387 
Q 3406 4025 3406 3419 
Q 3406 3131 3298 2873 
Q 3191 2616 2906 2266 
Q 2828 2175 2409 1742 
Q 1991 1309 1228 531 
z
" transform="scale(0.015625)"/>
       </defs>
       <use xlink:href="#DejaVuSans-32"/>
       <use xlink:href="#DejaVuSans-2e" x="63.623047"/>
       <use xlink:href="#DejaVuSans-30" x="95.410156"/>
      </g>
     </g>
    </g>
    <g id="text_6">
     <!-- Pressure (bar) -->
     <g transform="translate(201.031094 335.860562) scale(0.1 -0.1)">
      <defs>
       <path id="DejaVuSans-50" d="M 1259 4147 
L 1259 2394 
L 2053 2394 
Q 2494 2394 2734 2622 
Q 2975 2850 2975 3272 
Q 2975 3691 2734 3919 
Q 2494 4147 2053 4147 
L 1259 4147 
z
M 628 4666 
L 2053 4666 
Q 2838 4666 3239 4311 
Q 3641 3956 3641 3272 
Q 3641 2581 3239 2228 
Q 2838 1875 2053 1875 
L 1259 1875 
L 1259 0 
L 628 0 
L 628 4666 
z
" transform="scale(0.015625)"/>
       <path id="DejaVuSans-72" d="M 2631 2963 
Q 2534 3019 2420 3045 
Q 2306 3072 2169 3072 
Q 1681 3072 1420 2755 
Q 1159 2438 1159 1844 
L 1159 0 
L 581 0 
L 581 3500 
L 1159 3500 
L 1159 2956 
Q 1341 3275 1631 3429 
Q 1922 3584 2338 3584 
Q 2397 3584 2469 3576 
Q 2541 3569 2628 3553 
L 2631 2963 
z
" transform="scale(0.015625)"/>
       <path id="DejaVuSans-65" d="M 3597 1894 
L 3597 1613 
L 953 1613 
Q 991 1019 1311 708 
Q 1631 397 2203 397 
Q 2534 397 2845 478 
Q 3156 559 3463 722 
L 3463 178 
Q 3153 47 2828 -22 
Q 2503 -91 2169 -91 
Q 1331 -91 842 396 
Q 353 884 353 1716 
Q 353 2575 817 3079 
Q 1281 3584 2069 3584 
Q 2775 3584 3186 3129 
Q 3597 2675 3597 1894 
z
M 3022 2063 
Q 3016 2534 2758 2815 
Q 2500 3097 2075 3097 
Q 1594 3097 1305 2825 
Q 1016 2553 972 2059 
L 3022 2063 
z
" transform="scale(0.015625)"/>
       <path id="DejaVuSans-73" d="M 2834 3397 
L 2834 2853 
Q 2591 2978 2328 3040 
Q 2066 3103 1784 3103 
Q 1356 3103 1142 2972 
Q 928 2841 928 2578 
Q 928 2378 1081 2264 
Q 1234 2150 1697 2047 
L 1894 2003 
Q 2506 1872 2764 1633 
Q 3022 1394 3022 966 
Q 3022 478 2636 193 
Q 2250 -91 1575 -91 
Q 1294 -91 989 -36 
Q 684 19 347 128 
L 347 722 
Q 666 556 975 473 
Q 1284 391 1588 391 
Q 1994 391 2212 530 
Q 2431 669 2431 922 
Q 2431 1156 2273 1281 
Q 2116 1406 1581 1522 
L 1381 1569 
Q 847 1681 609 1914 
Q 372 2147 372 2553 
Q 372 3047 722 3315 
Q 1072 3584 1716 3584 
Q 2034 3584 2315 3537 
Q 2597 3491 2834 3397 
z
" transform="scale(0.015625)"/>
       <path id="DejaVuSans-75" d="M 544 1381 
L 544 3500 
L 1119 3500 
L 1119 1403 
Q 1119 906 1312 657 
Q 1506 409 1894 409 
Q 2359 409 2629 706 
Q 2900 1003 2900 1516 
L 2900 3500 
L 3475 3500 
L 3475 0 
L 2900 0 
L 2900 538 
Q 2691 219 2414 64 
Q 2138 -91 1772 -91 
Q 1169 -91 856 284 
Q 544 659 544 1381 
z
M 1991 3584 
L 1991 3584 
z
" transform="scale(0.015625)"/>
       <path id="DejaVuSans-20" transform="scale(0.015625)"/>
       <path id="DejaVuSans-28" d="M 1984 4856 
Q 1566 4138 1362 3434 
Q 1159 2731 1159 2009 
Q 1159 1288 1364 580 
Q 1569 -128 1984 -844 
L 1484 -844 
Q 1016 -109 783 600 
Q 550 1309 550 2009 
Q 550 2706 781 3412 
Q 1013 4119 1484 4856 
L 1984 4856 
z
" transform="scale(0.015625)"/>
       <path id="DejaVuSans-62" d="M 3116 1747 
Q 3116 2381 2855 2742 
Q 2594 3103 2138 3103 
Q 1681 3103 1420 2742 
Q 1159 2381 1159 1747 
Q 1159 1113 1420 752 
Q 1681 391 2138 391 
Q 2594 391 2855 752 
Q 3116 1113 3116 1747 
z
M 1159 2969 
Q 1341 3281 1617 3432 
Q 1894 3584 2278 3584 
Q 2916 3584 3314 3078 
Q 3713 2572 3713 1747 
Q 3713 922 3314 415 
Q 2916 -91 2278 -91 
Q 1894 -91 1617 61 
Q 1341 213 1159 525 
L 1159 0 
L 581 0 
L 581 4863 
L 1159 4863 
L 1159 2969 
z
" transform="scale(0.015625)"/>
       <path id="DejaVuSans-61" d="M 2194 1759 
Q 1497 1759 1228 1600 
Q 959 1441 959 1056 
Q 959 750 1161 570 
Q 1363 391 1709 391 
Q 2188 391 2477 730 
Q 2766 1069 2766 1631 
L 2766 1759 
L 2194 1759 
z
M 3341 1997 
L 3341 0 
L 2766 0 
L 2766 531 
Q 2569 213 2275 61 
Q 1981 -91 1556 -91 
Q 1019 -91 701 211 
Q 384 513 384 1019 
Q 384 1609 779 1909 
Q 1175 2209 1959 2209 
L 2766 2209 
L 2766 2266 
Q 2766 2663 2505 2880 
Q 2244 3097 1772 3097 
Q 1472 3097 1187 3025 
Q 903 2953 641 2809 
L 641 3341 
Q 956 3463 1253 3523 
Q 1550 3584 1831 3584 
Q 2591 3584 2966 3190 
Q 3341 2797 3341 1997 
z
" transform="scale(0.015625)"/>
       <path id="DejaVuSans-29" d="M 513 4856 
L 1013 4856 
Q 1481 4119 1714 3412 
Q 1947 2706 1947 2009 
Q 1947 1309 1714 600 
Q 1481 -109 1013 -844 
L 513 -844 
Q 928 -128 1133 580 
Q 1338 1288 1338 2009 
Q 1338 2731 1133 3434 
Q 928 4138 513 4856 
z
" transform="scale(0.015625)"/>
      </defs>
      <use xlink:href="#DejaVuSans-50"/>
      <use xlink:href="#DejaVuSans-72" x="58.552734"/>
      <use xlink:href="#DejaVuSans-65" x="97.416016"/>
      <use xlink:href="#DejaVuSans-73" x="158.939453"/>
      <use xlink:href="#DejaVuSans-73" x="211.039062"/>
      <use xlink:href="#DejaVuSans-75" x="263.138672"/>
      <use xlink:href="#DejaVuSans-72" x="326.517578"/>
      <use xlink:href="#DejaVuSans-65" x="365.380859"/>
      <use xlink:href="#DejaVuSans-20" x="426.904297"/>
      <use xlink:href="#DejaVuSans-28" x="458.691406"/>
      <use xlink:href="#DejaVuSans-62" x="497.705078"/>
      <use xlink:href="#DejaVuSans-61" x="561.181641"/>
      <use xlink:href="#DejaVuSans-72" x="622.460938"/>
      <use xlink:href="#DejaVuSans-29" x="663.574219"/>
     </g>
    </g>
   </g>
   <g id="matplotlib.axis_2">
    <g id="ytick_1">
     <g id="line2d_6">
      <defs>
       <path id="m77455e55d6" d="M 0 0 
L -3.5 0 
" style="stroke: #000000; stroke-width: 0.8"/>
      </defs>
      <g>
       <use xlink:href="#m77455e55d6" x="57.6" y="307.584" style="stroke: #000000; stroke-width: 0.8"/>
      </g>
     </g>
     <g id="text_7">
      <!-- 0 -->
      <g transform="translate(44.2375 311.383219) scale(0.1 -0.1)">
       <use xlink:href="#DejaVuSans-30"/>
      </g>
     </g>
    </g>
    <g id="ytick_2">
     <g id="line2d_7">
      <g>
       <use xlink:href="#m77455e55d6" x="57.6" y="273.315685" style="stroke: #000000; stroke-width: 0.8"/>
      </g>
     </g>
     <g id="text_8">
      <!-- 500 -->
      <g transform="translate(31.5125 277.114904) scale(0.1 -0.1)">
       <use xlink:href="#DejaVuSans-35"/>
       <use xlink:href="#DejaVuSans-30" x="63.623047"/>
       <use xlink:href="#DejaVuSans-30" x="127.246094"/>
      </g>
     </g>
    </g>
    <g id="ytick_3">
     <g id="line2d_8">
      <g>
       <use xlink:href="#m77455e55d6" x="57.6" y="239.04737" style="stroke: #000000; stroke-width: 0.8"/>
      </g>
     </g>
     <g id="text_9">
      <!-- 1000 -->
      <g transform="translate(25.15 242.846589) scale(0.1 -0.1)">
       <use xlink:href="#DejaVuSans-31"/>
       <use xlink:href="#DejaVuSans-30" x="63.623047"/>
       <use xlink:href="#DejaVuSans-30" x="127.246094"/>
       <use xlink:href="#DejaVuSans-30" x="190.869141"/>
      </g>
     </g>
    </g>
    <g id="ytick_4">
     <g id="line2d_9">
      <g>
       <use xlink:href="#m77455e55d6" x="57.6" y="204.779055" style="stroke: #000000; stroke-width: 0.8"/>
      </g>
     </g>
     <g id="text_10">
      <!-- 1500 -->
      <g transform="translate(25.15 208.578274) scale(0.1 -0.1)">
       <use xlink:href="#DejaVuSans-31"/>
       <use xlink:href="#DejaVuSans-35" x="63.623047"/>
       <use xlink:href="#DejaVuSans-30" x="127.246094"/>
       <use xlink:href="#DejaVuSans-30" x="190.869141"/>
      </g>
     </g>
    </g>
    <g id="ytick_5">
     <g id="line2d_10">
      <g>
       <use xlink:href="#m77455e55d6" x="57.6" y="170.51074" style="stroke: #000000; stroke-width: 0.8"/>
      </g>
     </g>
     <g id="text_11">
      <!-- 2000 -->
      <g transform="translate(25.15 174.309959) scale(0.1 -0.1)">
       <use xlink:href="#DejaVuSans-32"/>
       <use xlink:href="#DejaVuSans-30" x="63.623047"/>
       <use xlink:href="#DejaVuSans-30" x="127.246094"/>
       <use xlink:href="#DejaVuSans-30" x="190.869141"/>
      </g>
     </g>
    </g>
    <g id="ytick_6">
     <g id="line2d_11">
      <g>
       <use xlink:href="#m77455e55d6" x="57.6" y="136.242425" style="stroke: #000000; stroke-width: 0.8"/>
      </g>
     </g>
     <g id="text_12">
      <!-- 2500 -->
      <g transform="translate(25.15 140.041644) scale(0.1 -0.1)">
       <use xlink:href="#DejaVuSans-32"/>
       <use xlink:href="#DejaVuSans-35" x="63.623047"/>
       <use xlink:href="#DejaVuSans-30" x="127.246094"/>
       <use xlink:href="#DejaVuSans-30" x="190.869141"/>
      </g>
     </g>
    </g>
    <g id="ytick_7">
     <g id="line2d_12">
      <g>
       <use xlink:href="#m77455e55d6" x="57.6" y="101.97411" style="stroke: #000000; stroke-width: 0.8"/>
      </g>
     </g>
     <g id="text_13">
      <!-- 3000 -->
      <g transform="translate(25.15 105.773329) scale(0.1 -0.1)">
       <defs>
        <path id="DejaVuSans-33" d="M 2597 2516 
Q 3050 2419 3304 2112 
Q 3559 1806 3559 1356 
Q 3559 666 3084 287 
Q 2609 -91 1734 -91 
Q 1441 -91 1130 -33 
Q 819 25 488 141 
L 488 750 
Q 750 597 1062 519 
Q 1375 441 1716 441 
Q 2309 441 2620 675 
Q 2931 909 2931 1356 
Q 2931 1769 2642 2001 
Q 2353 2234 1838 2234 
L 1294 2234 
L 1294 2753 
L 1863 2753 
Q 2328 2753 2575 2939 
Q 2822 3125 2822 3475 
Q 2822 3834 2567 4026 
Q 2313 4219 1838 4219 
Q 1578 4219 1281 4162 
Q 984 4106 628 3988 
L 628 4550 
Q 988 4650 1302 4700 
Q 1616 4750 1894 4750 
Q 2613 4750 3031 4423 
Q 3450 4097 3450 3541 
Q 3450 3153 3228 2886 
Q 3006 2619 2597 2516 
z
" transform="scale(0.015625)"/>
       </defs>
       <use xlink:href="#DejaVuSans-33"/>
       <use xlink:href="#DejaVuSans-30" x="63.623047"/>
       <use xlink:href="#DejaVuSans-30" x="127.246094"/>
       <use xlink:href="#DejaVuSans-30" x="190.869141"/>
      </g>
     </g>
    </g>
    <g id="ytick_8">
     <g id="line2d_13">
      <g>
       <use xlink:href="#m77455e55d6" x="57.6" y="67.705795" style="stroke: #000000; stroke-width: 0.8"/>
      </g>
     </g>
     <g id="text_14">
      <!-- 3500 -->
      <g transform="translate(25.15 71.505014) scale(0.1 -0.1)">
       <use xlink:href="#DejaVuSans-33"/>
       <use xlink:href="#DejaVuSans-35" x="63.623047"/>
       <use xlink:href="#DejaVuSans-30" x="127.246094"/>
       <use xlink:href="#DejaVuSans-30" x="190.869141"/>
      </g>
     </g>
    </g>
    <g id="text_15">
     <!-- Flux (Lm⁻²Hr⁻¹) -->
     <g transform="translate(19.070312 213.170969) rotate(-90) scale(0.1 -0.1)">
      <defs>
       <path id="DejaVuSans-46" d="M 628 4666 
L 3309 4666 
L 3309 4134 
L 1259 4134 
L 1259 2759 
L 3109 2759 
L 3109 2228 
L 1259 2228 
L 1259 0 
L 628 0 
L 628 4666 
z
" transform="scale(0.015625)"/>
       <path id="DejaVuSans-6c" d="M 603 4863 
L 1178 4863 
L 1178 0 
L 603 0 
L 603 4863 
z
" transform="scale(0.015625)"/>
       <path id="DejaVuSans-78" d="M 3513 3500 
L 2247 1797 
L 3578 0 
L 2900 0 
L 1881 1375 
L 863 0 
L 184 0 
L 1544 1831 
L 300 3500 
L 978 3500 
L 1906 2253 
L 2834 3500 
L 3513 3500 
z
" transform="scale(0.015625)"/>
       <path id="DejaVuSans-4c" d="M 628 4666 
L 1259 4666 
L 1259 531 
L 3531 531 
L 3531 0 
L 628 0 
L 628 4666 
z
" transform="scale(0.015625)"/>
       <path id="DejaVuSans-6d" d="M 3328 2828 
Q 3544 3216 3844 3400 
Q 4144 3584 4550 3584 
Q 5097 3584 5394 3201 
Q 5691 2819 5691 2113 
L 5691 0 
L 5113 0 
L 5113 2094 
Q 5113 2597 4934 2840 
Q 4756 3084 4391 3084 
Q 3944 3084 3684 2787 
Q 3425 2491 3425 1978 
L 3425 0 
L 2847 0 
L 2847 2094 
Q 2847 2600 2669 2842 
Q 2491 3084 2119 3084 
Q 1678 3084 1418 2786 
Q 1159 2488 1159 1978 
L 1159 0 
L 581 0 
L 581 3500 
L 1159 3500 
L 1159 2956 
Q 1356 3278 1631 3431 
Q 1906 3584 2284 3584 
Q 2666 3584 2933 3390 
Q 3200 3197 3328 2828 
z
" transform="scale(0.015625)"/>
       <path id="DejaVuSans-207b" d="M 428 3359 
L 2950 3359 
L 2950 3063 
L 428 3063 
L 428 3359 
z
" transform="scale(0.015625)"/>
       <path id="DejaVuSans-b2" d="M 838 2444 
L 2163 2444 
L 2163 2088 
L 294 2088 
L 294 2431 
Q 400 2528 597 2703 
Q 1672 3656 1672 3950 
Q 1672 4156 1509 4282 
Q 1347 4409 1081 4409 
Q 919 4409 728 4354 
Q 538 4300 313 4191 
L 313 4575 
Q 553 4663 761 4706 
Q 969 4750 1147 4750 
Q 1600 4750 1872 4544 
Q 2144 4338 2144 4000 
Q 2144 3566 1109 2678 
Q 934 2528 838 2444 
z
" transform="scale(0.015625)"/>
       <path id="DejaVuSans-48" d="M 628 4666 
L 1259 4666 
L 1259 2753 
L 3553 2753 
L 3553 4666 
L 4184 4666 
L 4184 0 
L 3553 0 
L 3553 2222 
L 1259 2222 
L 1259 0 
L 628 0 
L 628 4666 
z
" transform="scale(0.015625)"/>
       <path id="DejaVuSans-b9" d="M 488 2431 
L 1125 2431 
L 1125 4341 
L 428 4213 
L 428 4575 
L 1147 4697 
L 1575 4697 
L 1575 2431 
L 2216 2431 
L 2216 2088 
L 488 2088 
L 488 2431 
z
" transform="scale(0.015625)"/>
      </defs>
      <use xlink:href="#DejaVuSans-46"/>
      <use xlink:href="#DejaVuSans-6c" x="57.519531"/>
      <use xlink:href="#DejaVuSans-75" x="85.302734"/>
      <use xlink:href="#DejaVuSans-78" x="148.681641"/>
      <use xlink:href="#DejaVuSans-20" x="207.861328"/>
      <use xlink:href="#DejaVuSans-28" x="239.648438"/>
      <use xlink:href="#DejaVuSans-4c" x="278.662109"/>
      <use xlink:href="#DejaVuSans-6d" x="334.375"/>
      <use xlink:href="#DejaVuSans-207b" x="431.787109"/>
      <use xlink:href="#DejaVuSans-b2" x="484.570312"/>
      <use xlink:href="#DejaVuSans-48" x="524.658203"/>
      <use xlink:href="#DejaVuSans-72" x="599.853516"/>
      <use xlink:href="#DejaVuSans-207b" x="640.966797"/>
      <use xlink:href="#DejaVuSans-b9" x="693.75"/>
      <use xlink:href="#DejaVuSans-29" x="733.837891"/>
     </g>
    </g>
   </g>
   <g id="line2d_14">
    <defs>
     <path id="m3728b90fdd" d="M 0 3 
C 0.795609 3 1.55874 2.683901 2.12132 2.12132 
C 2.683901 1.55874 3 0.795609 3 0 
C 3 -0.795609 2.683901 -1.55874 2.12132 -2.12132 
C 1.55874 -2.683901 0.795609 -3 0 -3 
C -0.795609 -3 -1.55874 -2.683901 -2.12132 -2.12132 
C -2.683901 -1.55874 -3 -0.795609 -3 0 
C -3 0.795609 -2.683901 1.55874 -2.12132 2.12132 
C -1.55874 2.683901 -0.795609 3 0 3 
z
" style="stroke: #d00000"/>
    </defs>
    <g clip-path="url(#p1468d8eed8)">
     <use xlink:href="#m3728b90fdd" x="382.254545" y="142.349385" style="fill: #d00000; stroke: #d00000"/>
     <use xlink:href="#m3728b90fdd" x="319.820979" y="171.305582" style="fill: #d00000; stroke: #d00000"/>
     <use xlink:href="#m3728b90fdd" x="284.532441" y="199.064066" style="fill: #d00000; stroke: #d00000"/>
     <use xlink:href="#m3728b90fdd" x="221.555974" y="229.358653" style="fill: #d00000; stroke: #d00000"/>
     <use xlink:href="#m3728b90fdd" x="163.465613" y="257.577337" style="fill: #d00000; stroke: #d00000"/>
    </g>
   </g>
   <g id="line2d_15">
    <path d="M 382.254545 142.153954 
L 319.820979 175.576292 
L 284.532441 194.467179 
L 221.555974 228.180146 
L 163.465613 259.277452 
" clip-path="url(#p1468d8eed8)" style="fill: none; stroke-dasharray: 5.55,2.4; stroke-dashoffset: 0; stroke: #d00000; stroke-width: 1.5"/>
   </g>
   <g id="line2d_16">
    <defs>
     <path id="m0004405e06" d="M -3 3 
L 3 3 
L 3 -3 
L -3 -3 
z
" style="stroke: #3185fc; stroke-linejoin: miter"/>
    </defs>
    <g clip-path="url(#p1468d8eed8)">
     <use xlink:href="#m0004405e06" x="382.254545" y="125.825923" style="fill: #3185fc; stroke: #3185fc; stroke-linejoin: miter"/>
     <use xlink:href="#m0004405e06" x="319.820979" y="157.67774" style="fill: #3185fc; stroke: #3185fc; stroke-linejoin: miter"/>
     <use xlink:href="#m0004405e06" x="284.532441" y="188.212072" style="fill: #3185fc; stroke: #3185fc; stroke-linejoin: miter"/>
     <use xlink:href="#m0004405e06" x="221.555974" y="221.536118" style="fill: #3185fc; stroke: #3185fc; stroke-linejoin: miter"/>
     <use xlink:href="#m0004405e06" x="163.465613" y="252.576671" style="fill: #3185fc; stroke: #3185fc; stroke-linejoin: miter"/>
    </g>
   </g>
   <g id="line2d_17">
    <path d="M 382.254545 125.61095 
L 319.820979 162.375521 
L 284.532441 183.155497 
L 221.555974 220.239761 
L 163.465613 254.446797 
" clip-path="url(#p1468d8eed8)" style="fill: none; stroke-dasharray: 5.55,2.4; stroke-dashoffset: 0; stroke: #3185fc; stroke-width: 1.5"/>
   </g>
   <g id="line2d_18">
    <defs>
     <path id="m8fe997d9de" d="M 0 4.242641 
L 4.242641 0 
L 0 -4.242641 
L -4.242641 0 
z
" style="stroke: #1b998b; stroke-linejoin: miter"/>
    </defs>
    <g clip-path="url(#p1468d8eed8)">
     <use xlink:href="#m8fe997d9de" x="382.254545" y="107.650116" style="fill: #1b998b; stroke: #1b998b; stroke-linejoin: miter"/>
     <use xlink:href="#m8fe997d9de" x="319.820979" y="142.687114" style="fill: #1b998b; stroke: #1b998b; stroke-linejoin: miter"/>
     <use xlink:href="#m8fe997d9de" x="284.532441" y="176.274879" style="fill: #1b998b; stroke: #1b998b; stroke-linejoin: miter"/>
     <use xlink:href="#m8fe997d9de" x="221.555974" y="212.93133" style="fill: #1b998b; stroke: #1b998b; stroke-linejoin: miter"/>
     <use xlink:href="#m8fe997d9de" x="163.465613" y="247.075938" style="fill: #1b998b; stroke: #1b998b; stroke-linejoin: miter"/>
    </g>
   </g>
   <g id="line2d_19">
    <path d="M 382.254545 107.413645 
L 319.820979 147.854674 
L 284.532441 170.712646 
L 221.555974 211.505337 
L 163.465613 249.133077 
" clip-path="url(#p1468d8eed8)" style="fill: none; stroke-dasharray: 5.55,2.4; stroke-dashoffset: 0; stroke: #1b998b; stroke-width: 1.5"/>
   </g>
   <g id="line2d_20">
    <defs>
     <path id="mda6b3cb92f" d="M 0 -3 
L -3 3 
L 3 3 
z
" style="stroke: #ffba08; stroke-linejoin: miter"/>
    </defs>
    <g clip-path="url(#p1468d8eed8)">
     <use xlink:href="#mda6b3cb92f" x="382.254545" y="87.656727" style="fill: #ffba08; stroke: #ffba08; stroke-linejoin: miter"/>
     <use xlink:href="#mda6b3cb92f" x="319.820979" y="126.197426" style="fill: #ffba08; stroke: #ffba08; stroke-linejoin: miter"/>
     <use xlink:href="#mda6b3cb92f" x="284.532441" y="163.143967" style="fill: #ffba08; stroke: #ffba08; stroke-linejoin: miter"/>
     <use xlink:href="#mda6b3cb92f" x="221.555974" y="203.466063" style="fill: #ffba08; stroke: #ffba08; stroke-linejoin: miter"/>
     <use xlink:href="#mda6b3cb92f" x="163.465613" y="241.025132" style="fill: #ffba08; stroke: #ffba08; stroke-linejoin: miter"/>
    </g>
   </g>
   <g id="line2d_21">
    <path d="M 382.254545 87.396609 
L 319.820979 131.881741 
L 284.532441 157.025511 
L 221.555974 201.89747 
L 163.465613 243.287984 
" clip-path="url(#p1468d8eed8)" style="fill: none; stroke-dasharray: 5.55,2.4; stroke-dashoffset: 0; stroke: #ffba08; stroke-width: 1.5"/>
   </g>
   <g id="line2d_22">
    <defs>
     <path id="m055bfa549b" d="M -0 3 
L 3 -3 
L -3 -3 
z
" style="stroke: #ff9b85; stroke-linejoin: miter"/>
    </defs>
    <g clip-path="url(#p1468d8eed8)">
     <use xlink:href="#m055bfa549b" x="382.254545" y="65.664" style="fill: #ff9b85; stroke: #ff9b85; stroke-linejoin: miter"/>
     <use xlink:href="#m055bfa549b" x="319.820979" y="108.058768" style="fill: #ff9b85; stroke: #ff9b85; stroke-linejoin: miter"/>
     <use xlink:href="#m055bfa549b" x="284.532441" y="148.699964" style="fill: #ff9b85; stroke: #ff9b85; stroke-linejoin: miter"/>
     <use xlink:href="#m055bfa549b" x="221.555974" y="193.05427" style="fill: #ff9b85; stroke: #ff9b85; stroke-linejoin: miter"/>
     <use xlink:href="#m055bfa549b" x="163.465613" y="234.369246" style="fill: #ff9b85; stroke: #ff9b85; stroke-linejoin: miter"/>
    </g>
   </g>
   <g id="line2d_23">
    <path d="M 382.254545 65.37787 
L 319.820979 114.311515 
L 284.532441 141.969662 
L 221.555974 191.328817 
L 163.465613 236.858383 
" clip-path="url(#p1468d8eed8)" style="fill: none; stroke-dasharray: 5.55,2.4; stroke-dashoffset: 0; stroke: #ff9b85; stroke-width: 1.5"/>
   </g>
   <g id="line2d_24">
    <defs>
     <path id="mfecd156825" d="M -3 -0 
L 3 3 
L 3 -3 
z
" style="stroke: #5d2e8c; stroke-linejoin: miter"/>
    </defs>
    <g clip-path="url(#p1468d8eed8)">
     <use xlink:href="#mfecd156825" x="382.254545" y="158.872846" style="fill: #5d2e8c; stroke: #5d2e8c; stroke-linejoin: miter"/>
     <use xlink:href="#mfecd156825" x="319.820979" y="184.933424" style="fill: #5d2e8c; stroke: #5d2e8c; stroke-linejoin: miter"/>
     <use xlink:href="#mfecd156825" x="284.532441" y="209.916059" style="fill: #5d2e8c; stroke: #5d2e8c; stroke-linejoin: miter"/>
     <use xlink:href="#mfecd156825" x="221.555974" y="237.181188" style="fill: #5d2e8c; stroke: #5d2e8c; stroke-linejoin: miter"/>
     <use xlink:href="#mfecd156825" x="163.465613" y="262.578004" style="fill: #5d2e8c; stroke: #5d2e8c; stroke-linejoin: miter"/>
    </g>
   </g>
   <g id="line2d_25">
    <path d="M 382.254545 158.696959 
L 319.820979 188.777063 
L 284.532441 205.778861 
L 221.555974 236.120531 
L 163.465613 264.108106 
" clip-path="url(#p1468d8eed8)" style="fill: none; stroke-dasharray: 5.55,2.4; stroke-dashoffset: 0; stroke: #5d2e8c; stroke-width: 1.5"/>
   </g>
   <g id="line2d_26">
    <defs>
     <path id="m07ae334454" d="M 3 0 
L -3 -3 
L -3 3 
z
" style="stroke: #76a53c; stroke-linejoin: miter"/>
    </defs>
    <g clip-path="url(#p1468d8eed8)">
     <use xlink:href="#m07ae334454" x="382.254545" y="173.743962" style="fill: #76a53c; stroke: #76a53c; stroke-linejoin: miter"/>
     <use xlink:href="#m07ae334454" x="319.820979" y="197.198481" style="fill: #76a53c; stroke: #76a53c; stroke-linejoin: miter"/>
     <use xlink:href="#m07ae334454" x="284.532441" y="219.682853" style="fill: #76a53c; stroke: #76a53c; stroke-linejoin: miter"/>
     <use xlink:href="#m07ae334454" x="221.555974" y="244.221469" style="fill: #76a53c; stroke: #76a53c; stroke-linejoin: miter"/>
     <use xlink:href="#m07ae334454" x="163.465613" y="267.078603" style="fill: #76a53c; stroke: #76a53c; stroke-linejoin: miter"/>
    </g>
   </g>
   <g id="line2d_27">
    <path d="M 382.254545 173.585663 
L 319.820979 200.657757 
L 284.532441 215.959375 
L 221.555974 243.266878 
L 163.465613 268.455696 
" clip-path="url(#p1468d8eed8)" style="fill: none; stroke-dasharray: 5.55,2.4; stroke-dashoffset: 0; stroke: #76a53c; stroke-width: 1.5"/>
   </g>
   <g id="line2d_28">
    <defs>
     <path id="mcc77a2181e" d="M 0 -3 
L -2.85317 -0.927051 
L -1.763356 2.427051 
L 1.763356 2.427051 
L 2.85317 -0.927051 
z
" style="stroke: #ff7b9c; stroke-linejoin: miter"/>
    </defs>
    <g clip-path="url(#p1468d8eed8)">
     <use xlink:href="#mcc77a2181e" x="382.254545" y="187.127965" style="fill: #ff7b9c; stroke: #ff7b9c; stroke-linejoin: miter"/>
     <use xlink:href="#mcc77a2181e" x="319.820979" y="208.237034" style="fill: #ff7b9c; stroke: #ff7b9c; stroke-linejoin: miter"/>
     <use xlink:href="#mcc77a2181e" x="284.532441" y="228.472968" style="fill: #ff7b9c; stroke: #ff7b9c; stroke-linejoin: miter"/>
     <use xlink:href="#mcc77a2181e" x="221.555974" y="250.557722" style="fill: #ff7b9c; stroke: #ff7b9c; stroke-linejoin: miter"/>
     <use xlink:href="#mcc77a2181e" x="163.465613" y="271.129143" style="fill: #ff7b9c; stroke: #ff7b9c; stroke-linejoin: miter"/>
    </g>
   </g>
   <g id="line2d_29">
    <path d="M 382.254545 186.985497 
L 319.820979 211.350381 
L 284.532441 225.121837 
L 221.555974 249.69859 
L 163.465613 272.368526 
" clip-path="url(#p1468d8eed8)" style="fill: none; stroke-dasharray: 5.55,2.4; stroke-dashoffset: 0; stroke: #ff7b9c; stroke-width: 1.5"/>
   </g>
   <g id="line2d_30">
    <defs>
     <path id="md132cffd43" d="M -1 3 
L 1 3 
L 1 1 
L 3 1 
L 3 -1 
L 1 -1 
L 1 -3 
L -1 -3 
L -1 -1 
L -3 -1 
L -3 1 
L -1 1 
z
" style="stroke: #46237a; stroke-linejoin: miter"/>
    </defs>
    <g clip-path="url(#p1468d8eed8)">
     <use xlink:href="#md132cffd43" x="382.254545" y="199.173569" style="fill: #46237a; stroke: #46237a; stroke-linejoin: miter"/>
     <use xlink:href="#md132cffd43" x="319.820979" y="218.17173" style="fill: #46237a; stroke: #46237a; stroke-linejoin: miter"/>
     <use xlink:href="#md132cffd43" x="284.532441" y="236.384071" style="fill: #46237a; stroke: #46237a; stroke-linejoin: miter"/>
     <use xlink:href="#md132cffd43" x="221.555974" y="256.26035" style="fill: #46237a; stroke: #46237a; stroke-linejoin: miter"/>
     <use xlink:href="#md132cffd43" x="163.465613" y="274.774629" style="fill: #46237a; stroke: #46237a; stroke-linejoin: miter"/>
    </g>
   </g>
   <g id="line2d_31">
    <path d="M 382.254545 199.045347 
L 319.820979 220.973743 
L 284.532441 233.368054 
L 221.555974 255.487131 
L 163.465613 275.890074 
" clip-path="url(#p1468d8eed8)" style="fill: none; stroke-dasharray: 5.55,2.4; stroke-dashoffset: 0; stroke: #46237a; stroke-width: 1.5"/>
   </g>
   <g id="patch_3">
    <path d="M 57.6 307.584 
L 57.6 41.472 
" style="fill: none; stroke: #000000; stroke-width: 0.8; stroke-linejoin: miter; stroke-linecap: square"/>
   </g>
   <g id="patch_4">
    <path d="M 414.72 307.584 
L 414.72 41.472 
" style="fill: none; stroke: #000000; stroke-width: 0.8; stroke-linejoin: miter; stroke-linecap: square"/>
   </g>
   <g id="patch_5">
    <path d="M 57.6 307.584 
L 414.72 307.584 
" style="fill: none; stroke: #000000; stroke-width: 0.8; stroke-linejoin: miter; stroke-linecap: square"/>
   </g>
   <g id="patch_6">
    <path d="M 57.6 41.472 
L 414.72 41.472 
" style="fill: none; stroke: #000000; stroke-width: 0.8; stroke-linejoin: miter; stroke-linecap: square"/>
   </g>
  </g>
 </g>
 <defs>
  <clipPath id="p1468d8eed8">
   <rect x="57.6" y="41.472" width="357.12" height="266.112"/>
  </clipPath>
 </defs>
</svg>
